<svg width="86" height="52" viewBox="0 0 86 52" fill="none" xmlns="http://www.w3.org/2000/svg">
<g clip-path="url(#clip0_2002_1948)">
<g clip-path="url(#clip1_2002_1948)">
<path d="M60.0273 22.7197H59.4996L57.9213 20.9508V22.7197H57.4815V19.2308H57.9213V20.9215L59.4605 19.2308H59.9589L58.4442 20.9264L60.0273 22.7197ZM62.7204 21.4053C62.7204 21.8385 62.6096 22.1741 62.3881 22.4119C62.1698 22.6497 61.8734 22.7686 61.4988 22.7686C61.2675 22.7686 61.0606 22.7164 60.8782 22.6122C60.6991 22.5047 60.5573 22.35 60.4531 22.148C60.3489 21.9428 60.2967 21.6952 60.2967 21.4053C60.2967 20.972 60.4059 20.6381 60.6241 20.4036C60.8424 20.169 61.1388 20.0517 61.5134 20.0517C61.7512 20.0517 61.9597 20.1055 62.1389 20.213C62.3213 20.3172 62.463 20.4703 62.564 20.6723C62.6683 20.871 62.7204 21.1153 62.7204 21.4053ZM60.7414 21.4053C60.7414 21.7147 60.8017 21.9607 60.9222 22.1431C61.046 22.3223 61.2414 22.4119 61.5086 22.4119C61.7724 22.4119 61.9662 22.3223 62.09 22.1431C62.2138 21.9607 62.2757 21.7147 62.2757 21.4053C62.2757 21.0958 62.2138 20.8531 62.09 20.6772C61.9662 20.5013 61.7708 20.4133 61.5037 20.4133C61.2366 20.4133 61.0427 20.5013 60.9222 20.6772C60.8017 20.8531 60.7414 21.0958 60.7414 21.4053ZM66.2115 20.1006V22.7197H65.8255V21.0486C65.8255 20.9802 65.8271 20.9085 65.8304 20.8336C65.8369 20.7586 65.8434 20.6853 65.8499 20.6137H65.8353L64.9802 22.7197H64.6186L63.7879 20.6137H63.7732C63.783 20.7603 63.7879 20.9101 63.7879 21.0632V22.7197H63.4019V20.1006H63.9736L64.7994 22.2066L65.6398 20.1006H66.2115ZM69.2613 20.1006V22.7197H68.8313V20.4671H67.4777V22.7197H67.0477V20.1006H69.2613ZM71.0888 20.0566C71.408 20.0566 71.6442 20.1267 71.7973 20.2667C71.9504 20.4068 72.0269 20.63 72.0269 20.9362V22.7197H71.7142L71.6312 22.3483H71.6116C71.4976 22.4917 71.3771 22.5975 71.25 22.6659C71.1262 22.7344 70.9536 22.7686 70.7321 22.7686C70.4943 22.7686 70.2972 22.7067 70.1408 22.5829C69.9844 22.4558 69.9063 22.2588 69.9063 21.9916C69.9063 21.731 70.0089 21.5307 70.2141 21.3906C70.4193 21.2473 70.7353 21.1691 71.1621 21.1561L71.6067 21.1414V20.985C71.6067 20.7668 71.5595 20.6153 71.465 20.5306C71.3705 20.4459 71.237 20.4036 71.0643 20.4036C70.9275 20.4036 70.7972 20.4247 70.6734 20.4671C70.5496 20.5062 70.434 20.5518 70.3265 20.6039L70.1946 20.2814C70.3086 20.2195 70.4438 20.1674 70.6001 20.125C70.7565 20.0794 70.9194 20.0566 71.0888 20.0566ZM71.2158 21.4541C70.89 21.4672 70.6636 21.5193 70.5366 21.6105C70.4128 21.7017 70.3509 21.8304 70.3509 21.9965C70.3509 22.1431 70.3949 22.2506 70.4829 22.319C70.5741 22.3874 70.6897 22.4216 70.8298 22.4216C71.0513 22.4216 71.2354 22.3614 71.3819 22.2408C71.5285 22.117 71.6018 21.9281 71.6018 21.674V21.4395L71.2158 21.4541ZM73.2658 20.1006V21.1903H74.6877V20.1006H75.1177V22.7197H74.6877V21.5519H73.2658V22.7197H72.8358V20.1006H73.2658ZM76.3771 22.7197H75.9471V20.1006H76.3771V22.7197ZM77.3681 22.7197H76.8697L77.6173 21.6203C77.5163 21.5942 77.4186 21.5535 77.3241 21.4981C77.2296 21.4395 77.1531 21.3597 77.0944 21.2587C77.0358 21.1544 77.0065 21.0258 77.0065 20.8727C77.0065 20.6218 77.0912 20.4313 77.2606 20.3009C77.43 20.1674 77.6547 20.1006 77.9349 20.1006H79.1076V22.7197H78.6776V21.6789H78.0424L77.3681 22.7197ZM77.4218 20.8775C77.4218 21.0274 77.4772 21.1398 77.588 21.2147C77.702 21.2864 77.86 21.3222 78.0619 21.3222H78.6776V20.4573H77.9789C77.7801 20.4573 77.6368 20.4964 77.5489 20.5746C77.4642 20.6528 77.4218 20.7538 77.4218 20.8775ZM82.1332 20.0517C82.4329 20.0517 82.6707 20.112 82.8467 20.2325C83.0258 20.3498 83.1154 20.5192 83.1154 20.7407C83.1154 20.9003 83.0714 21.0274 82.9835 21.1219C82.8955 21.2131 82.775 21.2798 82.6219 21.3222V21.3417C82.7261 21.3711 82.8222 21.4118 82.9102 21.4639C82.9981 21.516 83.0682 21.5844 83.1203 21.6691C83.1757 21.7538 83.2034 21.863 83.2034 21.9965C83.2034 22.2148 83.1121 22.3988 82.9297 22.5487C82.7506 22.6953 82.4688 22.7686 82.0844 22.7686C81.8954 22.7686 81.7244 22.7523 81.5713 22.7197C81.4182 22.6904 81.2912 22.6497 81.1902 22.5975V22.2115C81.3009 22.2636 81.4312 22.3109 81.5811 22.3532C81.7342 22.3956 81.9003 22.4167 82.0795 22.4167C82.275 22.4167 82.4395 22.3842 82.573 22.319C82.7098 22.2506 82.7782 22.135 82.7782 21.9721C82.7782 21.6789 82.529 21.5323 82.0306 21.5323H81.6788V21.1805H81.9622C82.187 21.1805 82.3662 21.1512 82.4997 21.0925C82.6365 21.0306 82.7049 20.9264 82.7049 20.7798C82.7049 20.656 82.6528 20.5632 82.5486 20.5013C82.4476 20.4394 82.301 20.4084 82.1088 20.4084C81.9655 20.4084 81.8384 20.4231 81.7277 20.4524C81.6202 20.4785 81.5013 20.5192 81.371 20.5746L81.2195 20.2325C81.4931 20.112 81.7977 20.0517 82.1332 20.0517ZM57.0125 25.6385H57.4718L58.0386 27.1288C58.0874 27.2591 58.1314 27.3845 58.1705 27.5051C58.2096 27.6224 58.2389 27.7347 58.2585 27.8422H58.278C58.2976 27.7608 58.3285 27.6549 58.3709 27.5246C58.4132 27.3911 58.4572 27.2575 58.5028 27.1239L59.0354 25.6385H59.4996L58.3709 28.6192C58.2796 28.8667 58.1607 29.0638 58.0142 29.2104C57.8708 29.357 57.6721 29.4303 57.418 29.4303C57.3398 29.4303 57.2714 29.4254 57.2128 29.4156C57.1542 29.4091 57.1037 29.401 57.0613 29.3912V29.0492C57.0971 29.0557 57.1395 29.0622 57.1884 29.0687C57.2405 29.0752 57.2942 29.0785 57.3496 29.0785C57.4995 29.0785 57.62 29.0361 57.7112 28.9514C57.8057 28.8667 57.879 28.7544 57.9311 28.6143L58.0679 28.2673L57.0125 25.6385ZM62.1272 25.6385V28.2576H61.6972V26.005H60.3436V28.2576H59.9137V25.6385H62.1272ZM64.2091 25.5896C64.5316 25.5896 64.7906 25.702 64.986 25.9268C65.1847 26.1516 65.2841 26.4903 65.2841 26.9431C65.2841 27.3894 65.1847 27.7282 64.986 27.9595C64.7906 28.1908 64.53 28.3064 64.2042 28.3064C64.0022 28.3064 63.8345 28.269 63.7009 28.1941C63.5706 28.1159 63.468 28.0263 63.3931 27.9253H63.3637C63.3703 27.9807 63.3768 28.0507 63.3833 28.1354C63.3898 28.2201 63.3931 28.2934 63.3931 28.3553V29.4303H62.9631V25.6385H63.3149L63.3735 25.9952H63.3931C63.4712 25.8812 63.5739 25.7851 63.7009 25.7069C63.828 25.6287 63.9973 25.5896 64.2091 25.5896ZM64.1309 25.9512C63.8638 25.9512 63.6748 26.0261 63.5641 26.176C63.4566 26.3258 63.3996 26.5539 63.3931 26.8601V26.9431C63.3931 27.2656 63.4452 27.5149 63.5494 27.6908C63.6569 27.8634 63.854 27.9497 64.1407 27.9497C64.3003 27.9497 64.4306 27.9058 64.5316 27.8178C64.6358 27.7298 64.7124 27.6109 64.7612 27.4611C64.8134 27.308 64.8394 27.1337 64.8394 26.9383C64.8394 26.6386 64.7808 26.3991 64.6635 26.22C64.5495 26.0408 64.372 25.9512 64.1309 25.9512ZM66.9611 25.5945C67.2803 25.5945 67.5165 25.6645 67.6696 25.8046C67.8227 25.9447 67.8993 26.1678 67.8993 26.4741V28.2576H67.5865L67.5035 27.8862H67.4839C67.3699 28.0295 67.2494 28.1354 67.1223 28.2038C66.9986 28.2722 66.8259 28.3064 66.6044 28.3064C66.3666 28.3064 66.1695 28.2445 66.0131 28.1208C65.8568 27.9937 65.7786 27.7966 65.7786 27.5295C65.7786 27.2689 65.8812 27.0686 66.0864 26.9285C66.2917 26.7852 66.6076 26.707 67.0344 26.6939L67.479 26.6793V26.5229C67.479 26.3047 67.4318 26.1532 67.3373 26.0685C67.2429 25.9838 67.1093 25.9414 66.9367 25.9414C66.7998 25.9414 66.6695 25.9626 66.5457 26.005C66.422 26.0441 66.3063 26.0897 66.1988 26.1418L66.0669 25.8193C66.1809 25.7574 66.3161 25.7053 66.4724 25.6629C66.6288 25.6173 66.7917 25.5945 66.9611 25.5945ZM67.0881 26.992C66.7624 27.005 66.536 27.0572 66.4089 27.1484C66.2851 27.2396 66.2232 27.3683 66.2232 27.5344C66.2232 27.681 66.2672 27.7885 66.3552 27.8569C66.4464 27.9253 66.562 27.9595 66.7021 27.9595C66.9236 27.9595 67.1077 27.8992 67.2543 27.7787C67.4009 27.6549 67.4742 27.466 67.4742 27.2119V26.9773L67.0881 26.992ZM70.8145 26.2981C70.8145 26.461 70.7656 26.5881 70.6679 26.6793C70.5702 26.7705 70.4447 26.8324 70.2916 26.865V26.8845C70.4545 26.9073 70.5962 26.9659 70.7167 27.0604C70.8373 27.1516 70.8975 27.295 70.8975 27.4904C70.8975 27.7119 70.8145 27.896 70.6483 28.0426C70.4855 28.1859 70.2151 28.2576 69.8372 28.2576H68.7085V25.6385H69.8323C70.018 25.6385 70.1841 25.6597 70.3307 25.702C70.4806 25.7411 70.5978 25.8095 70.6825 25.9072C70.7705 26.0017 70.8145 26.132 70.8145 26.2981ZM70.3796 26.3519C70.3796 26.2281 70.334 26.1385 70.2428 26.0831C70.1548 26.0245 70.0099 25.9952 69.8079 25.9952H69.1385V26.7135H69.7297C70.163 26.7135 70.3796 26.593 70.3796 26.3519ZM70.4529 27.4904C70.4529 27.3406 70.3959 27.2331 70.2819 27.1679C70.1678 27.1028 70.0001 27.0702 69.7786 27.0702H69.1385V27.9106H69.7883C70.0033 27.9106 70.1678 27.8797 70.2819 27.8178C70.3959 27.7527 70.4529 27.6435 70.4529 27.4904ZM73.5173 28.2576H73.0824V25.9952H72.3104C72.268 26.5457 72.2094 26.9904 72.1344 27.3292C72.0595 27.6647 71.9602 27.909 71.8364 28.0621C71.7126 28.2152 71.5562 28.2918 71.3673 28.2918C71.3249 28.2918 71.2826 28.2885 71.2402 28.282C71.2011 28.2788 71.1686 28.2706 71.1425 28.2576V27.9351C71.1621 27.9416 71.1832 27.9465 71.206 27.9497C71.2288 27.953 71.2516 27.9546 71.2744 27.9546C71.4504 27.9546 71.5904 27.7673 71.6947 27.3927C71.8022 27.0181 71.8836 26.4333 71.939 25.6385H73.5173V28.2576ZM74.7786 28.2576H74.3486V25.6385H74.7786V28.2576ZM76.0383 25.6385V26.7281H77.4603V25.6385H77.8903V28.2576H77.4603V27.0897H76.0383V28.2576H75.6083V25.6385H76.0383ZM79.1496 25.6385V26.7281H80.5716V25.6385H81.0016V28.2576H80.5716V27.0897H79.1496V28.2576H78.7196V25.6385H79.1496ZM81.9922 28.2576H81.4938L82.2414 27.1581C82.1404 27.1321 82.0427 27.0914 81.9482 27.036C81.8537 26.9773 81.7772 26.8975 81.7186 26.7966C81.6599 26.6923 81.6306 26.5636 81.6306 26.4105C81.6306 26.1597 81.7153 25.9691 81.8847 25.8388C82.0541 25.7053 82.2789 25.6385 82.559 25.6385H83.7317V28.2576H83.3017V27.2168H82.6665L81.9922 28.2576ZM82.0459 26.4154C82.0459 26.5653 82.1013 26.6777 82.2121 26.7526C82.3261 26.8242 82.4841 26.8601 82.6861 26.8601H83.3017V25.9952H82.603C82.4043 25.9952 82.2609 26.0343 82.173 26.1125C82.0883 26.1906 82.0459 26.2916 82.0459 26.4154ZM58.4148 31.1324C58.7341 31.1324 58.9703 31.2024 59.1234 31.3425C59.2765 31.4826 59.353 31.7057 59.353 32.0119V33.7955H59.0403L58.9572 33.4241H58.9377C58.8237 33.5674 58.7031 33.6733 58.5761 33.7417C58.4523 33.8101 58.2797 33.8443 58.0581 33.8443C57.8203 33.8443 57.6232 33.7824 57.4669 33.6586C57.3105 33.5316 57.2323 33.3345 57.2323 33.0674C57.2323 32.8068 57.3349 32.6064 57.5402 32.4664C57.7454 32.323 58.0614 32.2448 58.4881 32.2318L58.9328 32.2172V32.0608C58.9328 31.8425 58.8856 31.6911 58.7911 31.6064C58.6966 31.5217 58.5631 31.4793 58.3904 31.4793C58.2536 31.4793 58.1233 31.5005 57.9995 31.5428C57.8757 31.5819 57.7601 31.6275 57.6526 31.6797L57.5206 31.3572C57.6346 31.2953 57.7698 31.2431 57.9262 31.2008C58.0826 31.1552 58.2454 31.1324 58.4148 31.1324ZM58.5419 32.5299C58.2161 32.5429 57.9897 32.595 57.8627 32.6863C57.7389 32.7775 57.677 32.9061 57.677 33.0723C57.677 33.2189 57.721 33.3264 57.8089 33.3948C57.9001 33.4632 58.0158 33.4974 58.1559 33.4974C58.3774 33.4974 58.5614 33.4371 58.708 33.3166C58.8546 33.1928 58.9279 33.0039 58.9279 32.7498V32.5152L58.5419 32.5299ZM61.7109 31.1764H62.1799L61.061 32.437L62.2728 33.7955H61.7744L60.5919 32.4664V33.7955H60.1619V31.1764H60.5919V32.4468L61.7109 31.1764ZM64.5563 31.538H63.7012V33.7955H63.2761V31.538H62.4308V31.1764H64.5563V31.538ZM65.4776 32.7742C65.4776 32.8133 65.476 32.8719 65.4727 32.9501C65.4694 33.0283 65.4646 33.1065 65.458 33.1847C65.4548 33.2628 65.4515 33.3247 65.4483 33.3703L66.8507 31.1764H67.3784V33.7955H66.9777V32.2514C66.9777 32.1992 66.9777 32.1308 66.9777 32.0461C66.981 31.9614 66.9842 31.8784 66.9875 31.7969C66.9907 31.7122 66.994 31.6487 66.9972 31.6064L65.6046 33.7955H65.072V31.1764H65.4776V32.7742ZM70.318 31.836C70.318 31.9989 70.2692 32.1259 70.1714 32.2172C70.0737 32.3084 69.9483 32.3703 69.7952 32.4028V32.4224C69.9581 32.4452 70.0998 32.5038 70.2203 32.5983C70.3408 32.6895 70.4011 32.8328 70.4011 33.0283C70.4011 33.2498 70.318 33.4339 70.1519 33.5805C69.989 33.7238 69.7186 33.7955 69.3407 33.7955H68.212V31.1764H69.3359C69.5215 31.1764 69.6877 31.1975 69.8343 31.2399C69.9841 31.279 70.1014 31.3474 70.1861 31.4451C70.274 31.5396 70.318 31.6699 70.318 31.836ZM69.8831 31.8898C69.8831 31.766 69.8375 31.6764 69.7463 31.621C69.6584 31.5624 69.5134 31.5331 69.3114 31.5331H68.642V32.2514H69.2332C69.6665 32.2514 69.8831 32.1308 69.8831 31.8898ZM69.9564 33.0283C69.9564 32.8784 69.8994 32.7709 69.7854 32.7058C69.6714 32.6406 69.5036 32.6081 69.2821 32.6081H68.642V33.4485H69.2919C69.5069 33.4485 69.6714 33.4176 69.7854 33.3557C69.8994 33.2905 69.9564 33.1814 69.9564 33.0283ZM72.0194 31.1324C72.3387 31.1324 72.5749 31.2024 72.728 31.3425C72.8811 31.4826 72.9576 31.7057 72.9576 32.0119V33.7955H72.6449L72.5618 33.4241H72.5423C72.4283 33.5674 72.3077 33.6733 72.1807 33.7417C72.0569 33.8101 71.8843 33.8443 71.6627 33.8443C71.4249 33.8443 71.2279 33.7824 71.0715 33.6586C70.9151 33.5316 70.837 33.3345 70.837 33.0674C70.837 32.8068 70.9396 32.6064 71.1448 32.4664C71.35 32.323 71.666 32.2448 72.0927 32.2318L72.5374 32.2172V32.0608C72.5374 31.8425 72.4902 31.6911 72.3957 31.6064C72.3012 31.5217 72.1677 31.4793 71.995 31.4793C71.8582 31.4793 71.7279 31.5005 71.6041 31.5428C71.4803 31.5819 71.3647 31.6275 71.2572 31.6797L71.1252 31.3572C71.2393 31.2953 71.3744 31.2431 71.5308 31.2008C71.6872 31.1552 71.8501 31.1324 72.0194 31.1324ZM72.1465 32.5299C71.8207 32.5429 71.5943 32.595 71.4673 32.6863C71.3435 32.7775 71.2816 32.9061 71.2816 33.0723C71.2816 33.2189 71.3256 33.3264 71.4135 33.3948C71.5048 33.4632 71.6204 33.4974 71.7605 33.4974C71.982 33.4974 72.166 33.4371 72.3126 33.3166C72.4592 33.1928 72.5325 33.0039 72.5325 32.7498V32.5152L72.1465 32.5299ZM76.5761 31.1764V33.7955H76.1901V32.1243C76.1901 32.0559 76.1918 31.9842 76.195 31.9093C76.2015 31.8344 76.208 31.7611 76.2146 31.6894H76.1999L75.3448 33.7955H74.9832L74.1525 31.6894H74.1379C74.1476 31.836 74.1525 31.9859 74.1525 32.139V33.7955H73.7665V31.1764H74.3382L75.164 33.2824L76.0044 31.1764H76.5761ZM77.8176 32.7742C77.8176 32.8133 77.816 32.8719 77.8127 32.9501C77.8095 33.0283 77.8046 33.1065 77.7981 33.1847C77.7948 33.2628 77.7916 33.3247 77.7883 33.3703L79.1907 31.1764H79.7184V33.7955H79.3177V32.2514C79.3177 32.1992 79.3177 32.1308 79.3177 32.0461C79.321 31.9614 79.3242 31.8784 79.3275 31.7969C79.3308 31.7122 79.334 31.6487 79.3373 31.6064L77.9447 33.7955H77.412V31.1764H77.8176V32.7742Z" fill="#7D7987"/>
<path d="M3.59079 44.8712H2.45618V44.6425L2.82559 44.5588V42.0479L2.45618 41.9599V41.7312H3.59079V41.9599L3.22138 42.0479V44.5588L3.59079 44.6425V44.8712ZM6.59825 44.8712H6.20245V43.4066H4.59289V44.8712H4.19709V41.7312H4.59289V43.0594H6.20245V41.7312H6.59825V44.8712ZM8.35389 41.7312C8.74675 41.7312 9.04286 41.7899 9.24223 41.9071C9.44452 42.0215 9.54567 42.2222 9.54567 42.5095C9.54567 42.6942 9.49436 42.8483 9.39175 42.9714C9.28914 43.0916 9.14108 43.1691 8.94758 43.2043V43.2265C9.07951 43.247 9.19825 43.2851 9.3038 43.3408C9.41227 43.3965 9.4973 43.4757 9.55886 43.5783C9.62043 43.6809 9.65122 43.8141 9.65122 43.9783C9.65122 44.2627 9.553 44.4826 9.35657 44.638C9.16307 44.7934 8.89774 44.8712 8.56058 44.8712H7.45675V41.7312H8.35389ZM8.43305 43.0681C8.70277 43.0681 8.88748 43.0255 8.98716 42.9405C9.08684 42.8525 9.13668 42.7235 9.13668 42.5535C9.13668 42.3805 9.07511 42.2573 8.95198 42.184C8.83177 42.1078 8.63827 42.0697 8.37148 42.0697H7.85255V43.0681H8.43305ZM7.85255 43.3978V44.537H8.48582C8.76434 44.537 8.95784 44.4826 9.06632 44.3741C9.1748 44.2656 9.22903 44.1236 9.22903 43.9477C9.22903 43.7835 9.17186 43.6516 9.05752 43.5519C8.94611 43.4493 8.74529 43.3978 8.45503 43.3978H7.85255ZM12.0717 44.8712H10.317V41.7312H12.0717V42.0785H10.7128V43.0594H11.9925V43.4024H10.7128V44.5236H12.0717V44.8712ZM14.1063 42.0345C13.7692 42.0345 13.5039 42.1476 13.3104 42.3733C13.1169 42.5991 13.0201 42.9082 13.0201 43.3011C13.0201 43.691 13.1095 44.0005 13.2884 44.2291C13.4701 44.4549 13.7413 44.5676 14.1019 44.5676C14.2397 44.5676 14.3702 44.5559 14.4933 44.5324C14.6165 44.509 14.7367 44.4797 14.854 44.4445V44.7875C14.7367 44.8315 14.615 44.8637 14.4889 44.8846C14.3658 44.9051 14.2178 44.9152 14.0448 44.9152C13.7252 44.9152 13.4584 44.8494 13.2444 44.7171C13.0304 44.5852 12.8691 44.3976 12.7606 44.1542C12.6551 43.9109 12.6023 43.6252 12.6023 43.2968C12.6023 42.9802 12.6595 42.7017 12.7738 42.4613C12.8911 42.2179 13.0626 42.0287 13.2884 41.8938C13.5141 41.756 13.7882 41.6873 14.1107 41.6873C14.442 41.6873 14.7308 41.7488 14.9771 41.872L14.8188 42.2062C14.722 42.1622 14.6135 42.1225 14.4933 42.0873C14.3761 42.0521 14.2471 42.0345 14.1063 42.0345ZM16.5332 44.8712H16.1374V42.0785H15.1567V41.7312H17.5095V42.0785H16.5332V44.8712ZM17.9873 41.7312H18.3567V43.4551C18.3567 43.5519 18.3553 43.6604 18.3523 43.7806C18.3494 43.9008 18.345 44.0106 18.3391 44.1102C18.3362 44.2099 18.3318 44.2832 18.3259 44.3301H18.3435L20.0718 41.7312H20.5116V44.8712H20.1422V43.1649C20.1422 43.0564 20.1437 42.9405 20.1466 42.8173C20.1525 42.6942 20.1583 42.5815 20.1642 42.4789C20.1701 42.3762 20.1745 42.3029 20.1774 42.259H20.1598L18.4271 44.8712H17.9873V41.7312ZM24.0983 44.5236V45.698H23.7201V44.8712H21.3585V41.7312H21.7543V44.5194H23.3243V41.7312H23.7157V44.5236H24.0983ZM25.5021 44.8712H24.3675V44.6425L24.7369 44.5588V42.0479L24.3675 41.9599V41.7312H25.5021V41.9599L25.1327 42.0479V44.5588L25.5021 44.6425V44.8712ZM28.2501 40.7549C28.2296 40.9748 28.1548 41.1419 28.0258 41.2563C27.8998 41.3677 27.6975 41.4234 27.4189 41.4234C27.1316 41.4234 26.9279 41.3677 26.8077 41.2563C26.6904 41.1449 26.6244 40.9778 26.6098 40.7549H26.9704C26.985 40.9133 27.0261 41.0201 27.0935 41.0758C27.1639 41.1286 27.2753 41.155 27.4277 41.155C27.5626 41.155 27.6681 41.1273 27.7444 41.0716C27.8235 41.0129 27.8704 40.9074 27.8851 40.7549H28.2501ZM26.1128 41.7312H26.4822V43.4551C26.4822 43.5519 26.4808 43.6604 26.4778 43.7806C26.4749 43.9008 26.4705 44.0106 26.4646 44.1102C26.4617 44.2099 26.4573 44.2832 26.4514 44.3301H26.469L28.1973 41.7312H28.6371V44.8712H28.2677V43.1649C28.2677 43.0564 28.2692 42.9405 28.2721 42.8173C28.278 42.6942 28.2838 42.5815 28.2897 42.4789C28.2956 42.3762 28.3 42.3029 28.3029 42.259H28.2853L26.5526 44.8712H26.1128V41.7312ZM31.8852 44.8712H31.4894V43.4066H29.8798V44.8712H29.484V41.7312H29.8798V43.0594H31.4894V41.7312H31.8852V44.8712ZM33.6276 44.8712H32.493V44.6425L32.8624 44.5588V42.0479L32.493 41.9599V41.7312H33.6276V41.9599L33.2582 42.0479V44.5588L33.6276 44.6425V44.8712ZM36.906 43.9783C36.8122 44.1865 36.7168 44.3611 36.62 44.5018C36.5262 44.6396 36.4148 44.7435 36.2858 44.8139C36.1568 44.8816 35.9926 44.9152 35.7932 44.9152C35.7111 44.9152 35.6336 44.9093 35.5603 44.8976C35.4899 44.8859 35.4254 44.8696 35.3668 44.8491V44.4578C35.4254 44.4842 35.4883 44.506 35.5558 44.5236C35.6232 44.5383 35.6935 44.5458 35.7668 44.5458C35.931 44.5458 36.06 44.5106 36.1538 44.4402C36.2506 44.3699 36.3402 44.2451 36.4223 44.0663L35.2127 41.7312H35.6483L36.5233 43.4594C36.5379 43.4887 36.5555 43.5268 36.576 43.5737C36.5965 43.6177 36.6141 43.6604 36.6288 43.7014H36.6464C36.6581 43.6692 36.6728 43.6311 36.6904 43.5871C36.708 43.5402 36.7226 43.5021 36.7343 43.4727L37.4907 41.7312H37.9087L36.906 43.9783ZM40.6265 44.8712H40.1515L38.7312 43.2792V44.8712H38.3354V41.7312H38.7312V43.2529L40.1164 41.7312H40.5649L39.2016 43.2571L40.6265 44.8712ZM41.8849 41.7312C42.2953 41.7312 42.5944 41.8117 42.782 41.973C42.9697 42.1342 43.0635 42.3616 43.0635 42.6548C43.0635 42.8277 43.0241 42.9903 42.9449 43.1427C42.8687 43.2923 42.7381 43.4141 42.5533 43.5079C42.3716 43.6017 42.124 43.6486 41.8103 43.6486H41.4497V44.8712H41.0539V41.7312H41.8849ZM41.8497 42.0697H41.4497V43.3099H41.7663C42.0654 43.3099 42.2882 43.2616 42.4348 43.1649C42.5814 43.0681 42.6547 42.904 42.6547 42.6724C42.6547 42.4701 42.5902 42.3189 42.4612 42.2192C42.3322 42.1195 42.1282 42.0697 41.8497 42.0697ZM45.4676 44.8712L45.0894 43.8992H43.845L43.471 44.8712H43.071L44.2978 41.7179H44.6542L45.8767 44.8712H45.4676ZM44.619 42.5974C44.6102 42.574 44.5955 42.5316 44.575 42.4701C44.5545 42.4085 44.534 42.3453 44.5134 42.2808C44.4958 42.2134 44.4812 42.1622 44.4695 42.127C44.4489 42.2179 44.4255 42.3072 44.3991 42.3951C44.3727 42.4802 44.3506 42.5476 44.333 42.5974L43.9769 43.5473H44.9708L44.619 42.5974ZM47.1902 44.8712H46.0556V44.6425L46.425 44.5588V42.0479L46.0556 41.9599V41.7312H47.1902V41.9599L46.8208 42.0479V44.5588L47.1902 44.6425V44.8712ZM46.007 41.0934C46.007 41.0172 46.0276 40.9631 46.0686 40.9309C46.1096 40.8957 46.1582 40.8781 46.2139 40.8781C46.2696 40.8781 46.3178 40.8957 46.3589 40.9309C46.3999 40.9631 46.4204 41.0172 46.4204 41.0934C46.4204 41.1667 46.3999 41.2224 46.3589 41.2605C46.3178 41.2957 46.2696 41.3133 46.2139 41.3133C46.1582 41.3133 46.1096 41.2957 46.0686 41.2605C46.0276 41.2224 46.007 41.1667 46.007 41.0934ZM46.8338 41.0934C46.8338 41.0172 46.853 40.9631 46.8911 40.9309C46.9322 40.8957 46.9804 40.8781 47.0361 40.8781C47.0918 40.8781 47.1403 40.8957 47.1814 40.9309C47.2224 40.9631 47.243 41.0172 47.243 41.0934C47.243 41.1667 47.2224 41.2224 47.1814 41.2605C47.1403 41.2957 47.0918 41.3133 47.0361 41.3133C46.9804 41.3133 46.9322 41.2957 46.8911 41.2605C46.853 41.2224 46.8338 41.1667 46.8338 41.0934ZM50.1976 44.8712H49.8018V43.4066H48.1922V44.8712H47.7964V41.7312H48.1922V43.0594H49.8018V41.7312H50.1976V44.8712ZM52.4017 42.0345C52.0645 42.0345 51.7993 42.1476 51.6058 42.3733C51.4123 42.5991 51.3156 42.9082 51.3156 43.3011C51.3156 43.691 51.4048 44.0005 51.5837 44.2291C51.7655 44.4549 52.0368 44.5676 52.3974 44.5676C52.5352 44.5676 52.6655 44.5559 52.7887 44.5324C52.9118 44.509 53.032 44.4797 53.1493 44.4445V44.7875C53.032 44.8315 52.9105 44.8637 52.7844 44.8846C52.6613 44.9051 52.5131 44.9152 52.3401 44.9152C52.0205 44.9152 51.7537 44.8494 51.5397 44.7171C51.3257 44.5852 51.1644 44.3976 51.056 44.1542C50.9504 43.9109 50.8976 43.6252 50.8976 43.2968C50.8976 42.9802 50.955 42.7017 51.0693 42.4613C51.1866 42.2179 51.3579 42.0287 51.5837 41.8938C51.8094 41.756 52.0837 41.6873 52.4062 41.6873C52.7375 41.6873 53.0261 41.7488 53.2724 41.872L53.1141 42.2062C53.0173 42.1622 52.9089 42.1225 52.7887 42.0873C52.6714 42.0521 52.5424 42.0345 52.4017 42.0345ZM53.8347 44.8712V41.7312H54.2305V43.0594H54.8198C55.1129 43.0594 55.3462 43.0988 55.5192 43.1779C55.6921 43.2571 55.8166 43.3643 55.8928 43.4991C55.969 43.634 56.0071 43.7848 56.0071 43.9519C56.0071 44.2275 55.9133 44.4503 55.7257 44.6204C55.538 44.7875 55.2524 44.8712 54.8683 44.8712H53.8347ZM54.8285 44.5324C55.3416 44.5324 55.5983 44.3389 55.5983 43.9519C55.5983 43.7496 55.528 43.6076 55.3872 43.5255C55.2465 43.4434 55.0413 43.4024 54.7715 43.4024H54.2305V44.5324H54.8285ZM58.9474 44.8712H58.4725L57.0522 43.2792V44.8712H56.6564V41.7312H57.0522V43.2529L58.4373 41.7312H58.8859L57.5226 43.2571L58.9474 44.8712ZM60.2589 44.8712H59.1243V44.6425L59.4937 44.5588V42.0479L59.1243 41.9599V41.7312H60.2589V41.9599L59.8895 42.0479V44.5588L60.2589 44.6425V44.8712ZM62.2223 44.8712V41.7312H64.5794V44.8712H64.1879V42.0785H62.6181V44.8712H62.2223ZM66.2701 41.7312C66.6806 41.7312 66.9796 41.8117 67.1673 41.973C67.3549 42.1342 67.4487 42.3616 67.4487 42.6548C67.4487 42.8277 67.409 42.9903 67.3298 43.1427C67.2536 43.2923 67.1233 43.4141 66.9386 43.5079C66.7568 43.6017 66.5089 43.6486 66.1952 43.6486H65.8346V44.8712H65.4388V41.7312H66.2701ZM66.235 42.0697H65.8346V43.3099H66.1512C66.4503 43.3099 66.6731 43.2616 66.8197 43.1649C66.9663 43.0681 67.0396 42.904 67.0396 42.6724C67.0396 42.4701 66.9751 42.3189 66.8461 42.2192C66.7171 42.1195 66.5135 42.0697 66.235 42.0697ZM70.8415 43.2968C70.8415 43.6223 70.7858 43.9067 70.6744 44.15C70.5659 44.3904 70.4046 44.578 70.1906 44.7129C69.9766 44.8478 69.7111 44.9152 69.3945 44.9152C69.069 44.9152 68.798 44.8478 68.5811 44.7129C68.367 44.578 68.2071 44.3888 68.1015 44.1454C67.996 43.9021 67.9432 43.6177 67.9432 43.2923C67.9432 42.9698 67.996 42.6883 68.1015 42.4482C68.2071 42.2075 68.367 42.0199 68.5811 41.885C68.798 41.7501 69.0707 41.6827 69.399 41.6827C69.7127 41.6827 69.9766 41.7501 70.1906 41.885C70.4046 42.0169 70.5659 42.2046 70.6744 42.4482C70.7858 42.6883 70.8415 42.9714 70.8415 43.2968ZM68.3612 43.2968C68.3612 43.6926 68.4446 44.0047 68.6117 44.2334C68.7788 44.4591 69.0397 44.5722 69.3945 44.5722C69.7522 44.5722 70.0131 44.4591 70.1773 44.2334C70.3414 44.0047 70.4235 43.6926 70.4235 43.2968C70.4235 42.901 70.3414 42.5916 70.1773 42.3687C70.0131 42.143 69.7538 42.0303 69.399 42.0303C69.0443 42.0303 68.7817 42.143 68.6117 42.3687C68.4446 42.5916 68.3612 42.901 68.3612 43.2968ZM73.2918 44.8712H71.5373V41.7312H73.2918V42.0785H71.9331V43.0594H73.2127V43.4024H71.9331V44.5236H73.2918V44.8712ZM76.2722 44.8712H75.7972L74.3766 43.2792V44.8712H73.9808V41.7312H74.3766V43.2529L75.7621 41.7312H76.2106L74.8473 43.2571L76.2722 44.8712ZM77.6935 44.8712H77.2977V42.0785H76.3168V41.7312H78.6698V42.0785H77.6935V44.8712ZM79.1477 41.7312H79.5171V43.4551C79.5171 43.5519 79.5154 43.6604 79.5125 43.7806C79.5096 43.9008 79.5053 44.0106 79.4995 44.1102C79.4965 44.2099 79.492 44.2832 79.4861 44.3301H79.5037L81.2322 41.7312H81.672V44.8712H81.3025V43.1649C81.3025 43.0564 81.3038 42.9405 81.3068 42.8173C81.3126 42.6942 81.3185 42.5815 81.3244 42.4789C81.3302 42.3762 81.3348 42.3029 81.3377 42.259H81.3201L79.5874 44.8712H79.1477V41.7312Z" fill="#0D0D0D"/>
<path d="M6.31415 35.8458H2.28955V19.0726H6.31415V35.8458Z" fill="#0D0D0D"/>
<path d="M52.447 17.8333V35.4242C52.447 35.6042 52.5929 35.75 52.7728 35.75C52.9527 35.75 53.0985 35.6042 53.0985 35.4242V17.8333C53.0985 17.6534 52.9527 17.5076 52.7728 17.5076C52.5929 17.5076 52.447 17.6534 52.447 17.8333Z" fill="#0D0D0D"/>
<path d="M16.5139 30.1083H9.60095V27.1135H16.5139V30.1083Z" fill="#0D0D0D"/>
<path d="M32.842 19.072V30.0509C32.842 31.295 32.5774 32.3721 32.0484 33.2822C31.5195 34.1923 30.7606 34.8854 29.7715 35.3615C28.7828 35.8384 27.6139 36.0767 26.2648 36.0767C24.2255 36.0767 22.6195 35.5469 21.4469 34.4871C20.2742 33.4273 19.6756 31.9755 19.6511 30.1315V19.072H23.7103V30.2121C23.756 32.0478 24.607 32.9656 26.2632 32.9656C27.0985 32.9656 27.731 32.7351 28.1605 32.2742C28.59 31.8131 28.8046 31.0643 28.8042 30.0276V19.072H32.842Z" fill="#0D0D0D"/>
<path d="M39.3961 30.1548V35.8458H35.36V19.0726H42.0413C43.3212 19.0726 44.4538 19.3088 45.4389 19.7814C46.424 20.2539 47.1866 20.9259 47.727 21.7974C48.2672 22.6693 48.5372 23.658 48.5372 24.7636C48.5372 26.3998 47.9528 27.7074 46.7837 28.6863C45.6145 29.6653 44.0105 30.155 41.9716 30.1553L39.3961 30.1548ZM39.3961 27.0328H42.0423C42.8237 27.0328 43.4196 26.8369 43.83 26.4452C44.2405 26.0535 44.4457 25.5005 44.445 24.7863C44.445 24.0028 44.2343 23.3768 43.8127 22.9082C43.3912 22.4397 42.8163 22.2016 42.0882 22.194H39.3961V27.0328Z" fill="#0D0D0D"/>
<g clip-path="url(#clip2_2002_1948)">
<path d="M6.31569 13.4801H2.28027V17.7291H6.31569V13.4801Z" fill="#6BAF8D"/>
<path d="M33.1025 7.97144H29.0671V17.6994H33.1025V7.97144Z" fill="#6BAF8D"/>
<path d="M42.3078 3.5H38.2723V17.6788H42.3078V3.5Z" fill="#6BAF8D"/>
<path d="M23.6881 13.6105H19.6527V17.6728H23.6881V13.6105Z" fill="#6BAF8D"/>
</g>
</g>
</g>
<defs>
<clipPath id="clip0_2002_1948">
<rect width="86" height="51" fill="white" transform="translate(0 0.5)"/>
</clipPath>
<clipPath id="clip1_2002_1948">
<rect width="86" height="43.9773" fill="white" transform="translate(0 3.5)"/>
</clipPath>
<clipPath id="clip2_2002_1948">
<rect width="40.0275" height="14.2291" fill="white" transform="translate(2.28027 3.5)"/>
</clipPath>
</defs>
</svg>
