<svg width="64" height="64" viewBox="0 0 64 64" fill="none" xmlns="http://www.w3.org/2000/svg">
<path d="M8 32C8 42.0566 8 52.4183 11.5147 55.5425C15.0294 58.6667 20.6863 58.6667 32 58.6667C43.3137 58.6667 48.9706 58.6667 52.4853 55.5425C56 52.4183 56 42.0566 56 32" stroke="#6BAF8D" stroke-width="2.5"/>
<path d="M39.0942 37.8717L55.1136 33.0659C56.7016 32.5895 57.4956 32.3513 57.9995 31.7804C58.0976 31.6692 58.1863 31.55 58.2646 31.424C58.6667 30.7774 58.6667 29.9484 58.6667 28.2905C58.6667 21.7567 58.6667 18.4898 56.8721 16.2842C56.5272 15.8603 56.1397 15.4729 55.7158 15.1279C53.5102 13.3333 50.2433 13.3333 43.7096 13.3333H20.2905C13.7568 13.3333 10.4899 13.3333 8.28429 15.1279C7.86037 15.4729 7.47292 15.8603 7.12799 16.2842C5.33337 18.4898 5.33337 21.7567 5.33337 28.2905C5.33337 29.9484 5.33337 30.7773 5.73545 31.424C5.81377 31.55 5.90246 31.6692 6.00061 31.7804C6.50444 32.3513 7.29845 32.5895 8.88645 33.0659L24.9059 37.8717" stroke="#6BAF8D" stroke-width="2.5"/>
<path d="M17.3334 13.3333C19.5292 13.2777 21.758 11.8797 22.5052 9.81417C22.5282 9.75063 22.5518 9.67995 22.5989 9.53858L22.6673 9.33331C22.7798 8.99583 22.8361 8.82702 22.8963 8.67732C23.6648 6.76564 25.4657 5.46762 27.5223 5.34307C27.6833 5.33331 27.8612 5.33331 28.217 5.33331H35.7843C36.1401 5.33331 36.3179 5.33331 36.479 5.34307C38.5356 5.46762 40.3365 6.76564 41.105 8.67732C41.1652 8.82702 41.2215 8.99579 41.334 9.33331L41.4024 9.53858C41.4492 9.67912 41.4731 9.75081 41.4961 9.81417C42.2432 11.8797 44.4709 13.2777 46.6667 13.3333" stroke="#6BAF8D" stroke-width="2.5"/>
<path d="M37.3334 33.3333H26.6667C25.9303 33.3333 25.3334 33.9303 25.3334 34.6666V40.4306C25.3334 40.9758 25.6653 41.4661 26.1715 41.6686L28.0385 42.4154C30.5816 43.4326 33.4185 43.4326 35.9615 42.4154L37.8286 41.6686C38.3348 41.4661 38.6667 40.9758 38.6667 40.4306V34.6666C38.6667 33.9303 38.0698 33.3333 37.3334 33.3333Z" stroke="#6BAF8D" stroke-width="2.5" stroke-linecap="round"/>
</svg>
