<svg width="64" height="64" viewBox="0 0 64 64" fill="none" xmlns="http://www.w3.org/2000/svg">
<path d="M5.33333 32C5.33333 19.4292 5.33333 13.1438 9.23857 9.23856C13.1438 5.33331 19.4292 5.33331 32 5.33331C44.5708 5.33331 50.8562 5.33331 54.7614 9.23856C58.6667 13.1438 58.6667 19.4292 58.6667 32C58.6667 44.5708 58.6667 50.8562 54.7614 54.7614C50.8562 58.6666 44.5708 58.6666 32 58.6666C19.4292 58.6666 13.1438 58.6666 9.23857 54.7614C5.33333 50.8562 5.33333 44.5708 5.33333 32Z" stroke="#6BAF8D" stroke-width="2.5"/>
<path d="M18.6667 48V24" stroke="#6BAF8D" stroke-width="2.5" stroke-linecap="round"/>
<path d="M32 48V16" stroke="#6BAF8D" stroke-width="2.5" stroke-linecap="round"/>
<path d="M45.3333 48V34.6667" stroke="#6BAF8D" stroke-width="2.5" stroke-linecap="round"/>
</svg>
