<svg width="64" height="64" viewBox="0 0 64 64" fill="none" xmlns="http://www.w3.org/2000/svg">
<path d="M13.3333 21.3333C13.3333 13.7908 13.3333 10.0196 15.6765 7.67646C18.0196 5.33331 21.7908 5.33331 29.3333 5.33331H34.6666C42.2091 5.33331 45.9804 5.33331 48.3235 7.67646C50.6666 10.0196 50.6666 13.7908 50.6666 21.3333V42.6666C50.6666 50.2091 50.6666 53.9804 48.3235 56.3235C45.9804 58.6666 42.2091 58.6666 34.6666 58.6666H29.3333C21.7908 58.6666 18.0196 58.6666 15.6765 56.3235C13.3333 53.9804 13.3333 50.2091 13.3333 42.6666V21.3333Z" stroke="#6BAF8D" stroke-width="2.5"/>
<path d="M13.3333 10.8698C10.7331 11.1256 8.98282 11.7036 7.67646 13.01C5.33331 15.3531 5.33331 19.1244 5.33331 26.6668V37.3335C5.33331 44.876 5.33331 48.6472 7.67646 50.9904C8.98282 52.2967 10.7331 52.8747 13.3333 53.1305" stroke="#6BAF8D" stroke-width="2.5"/>
<path d="M50.6667 10.8698C53.2669 11.1256 55.0172 11.7036 56.3235 13.01C58.6667 15.3531 58.6667 19.1244 58.6667 26.6668V37.3335C58.6667 44.876 58.6667 48.6472 56.3235 50.9904C55.0172 52.2967 53.2669 52.8747 50.6667 53.1305" stroke="#6BAF8D" stroke-width="2.5"/>
<path d="M24 34.6667H40" stroke="#6BAF8D" stroke-width="2.5" stroke-linecap="round"/>
<path d="M24 24H40" stroke="#6BAF8D" stroke-width="2.5" stroke-linecap="round"/>
<path d="M24 45.3333H32" stroke="#6BAF8D" stroke-width="2.5" stroke-linecap="round"/>
</svg>
