<svg width="192" height="98" viewBox="0 0 192 98" fill="none" xmlns="http://www.w3.org/2000/svg">
<path d="M134.015 42.8298H132.836L129.313 38.8881V42.8298H128.331V35.0552H129.313V38.8227L132.749 35.0552H133.862L130.48 38.8336L134.015 42.8298ZM140.027 39.9007C140.027 40.8662 139.78 41.6139 139.285 42.1438C138.798 42.6738 138.136 42.9387 137.3 42.9387C136.783 42.9387 136.321 42.8226 135.914 42.5903C135.514 42.3507 135.198 42.0059 134.965 41.5558C134.732 41.0985 134.616 40.5468 134.616 39.9007C134.616 38.9352 134.86 38.1912 135.347 37.6685C135.834 37.1458 136.496 36.8845 137.332 36.8845C137.863 36.8845 138.329 37.0043 138.729 37.2438C139.136 37.4761 139.452 37.8173 139.678 38.2674C139.911 38.7102 140.027 39.2547 140.027 39.9007ZM135.609 39.9007C135.609 40.5904 135.743 41.1384 136.012 41.545C136.289 41.9442 136.725 42.1438 137.321 42.1438C137.911 42.1438 138.343 41.9442 138.62 41.545C138.896 41.1384 139.034 40.5904 139.034 39.9007C139.034 39.2111 138.896 38.6703 138.62 38.2783C138.343 37.8863 137.907 37.6903 137.311 37.6903C136.714 37.6903 136.281 37.8863 136.012 38.2783C135.743 38.6703 135.609 39.2111 135.609 39.9007ZM147.821 36.9934V42.8298H146.959V39.1058C146.959 38.9534 146.963 38.7937 146.97 38.6267C146.985 38.4598 146.999 38.2964 147.014 38.1367H146.981L145.072 42.8298H144.265L142.41 38.1367H142.377C142.399 38.4634 142.41 38.7973 142.41 39.1385V42.8298H141.548V36.9934H142.825L144.668 41.6865L146.545 36.9934H147.821ZM154.63 36.9934V42.8298H153.67V37.8101H150.648V42.8298H149.688V36.9934H154.63ZM158.71 36.8954C159.423 36.8954 159.95 37.0515 160.292 37.3636C160.633 37.6758 160.804 38.173 160.804 38.8554V42.8298H160.106L159.921 42.0023H159.877C159.623 42.3217 159.353 42.5576 159.07 42.7101C158.793 42.8625 158.408 42.9387 157.913 42.9387C157.383 42.9387 156.943 42.8008 156.593 42.525C156.244 42.2418 156.07 41.8027 156.07 41.2074C156.07 40.6267 156.299 40.1802 156.757 39.8681C157.215 39.5487 157.921 39.3744 158.873 39.3454L159.866 39.3127V38.9643C159.866 38.4779 159.761 38.1404 159.55 37.9516C159.339 37.7629 159.041 37.6685 158.655 37.6685C158.35 37.6685 158.059 37.7157 157.783 37.8101C157.506 37.8972 157.248 37.9988 157.008 38.115L156.713 37.3963C156.968 37.2584 157.27 37.1422 157.619 37.0478C157.968 36.9462 158.332 36.8954 158.71 36.8954ZM158.993 40.0096C158.266 40.0387 157.761 40.1548 157.477 40.3581C157.201 40.5613 157.063 40.8481 157.063 41.2183C157.063 41.545 157.161 41.7845 157.357 41.937C157.561 42.0894 157.819 42.1656 158.132 42.1656C158.626 42.1656 159.037 42.0313 159.364 41.7627C159.692 41.4869 159.855 41.0658 159.855 40.4996V39.977L158.993 40.0096ZM163.57 36.9934V39.4216H166.745V36.9934H167.705V42.8298H166.745V40.2274H163.57V42.8298H162.61V36.9934H163.57ZM170.516 42.8298H169.556V36.9934H170.516V42.8298ZM172.729 42.8298H171.616L173.285 40.3798C173.06 40.3218 172.841 40.231 172.631 40.1076C172.42 39.977 172.249 39.7991 172.118 39.5741C171.987 39.3418 171.921 39.055 171.921 38.7138C171.921 38.1549 172.111 37.7302 172.489 37.4398C172.867 37.1422 173.369 36.9934 173.994 36.9934H176.612V42.8298H175.652V40.5105H174.234L172.729 42.8298ZM172.849 38.7247C172.849 39.0587 172.972 39.3091 173.22 39.4761C173.474 39.6358 173.827 39.7156 174.278 39.7156H175.652V37.7883H174.092C173.649 37.7883 173.329 37.8754 173.132 38.0496C172.943 38.2238 172.849 38.4489 172.849 38.7247ZM183.367 36.8845C184.036 36.8845 184.567 37.0188 184.96 37.2874C185.36 37.5487 185.56 37.9262 185.56 38.4198C185.56 38.7755 185.462 39.0587 185.265 39.2692C185.069 39.4724 184.8 39.6212 184.458 39.7156V39.7592C184.691 39.8245 184.905 39.9152 185.102 40.0314C185.298 40.1475 185.455 40.3 185.571 40.4887C185.695 40.6775 185.756 40.9207 185.756 41.2183C185.756 41.7047 185.553 42.1148 185.145 42.4487C184.745 42.7754 184.116 42.9387 183.258 42.9387C182.836 42.9387 182.455 42.9024 182.113 42.8298C181.771 42.7645 181.487 42.6738 181.262 42.5576V41.6974C181.509 41.8135 181.8 41.9188 182.135 42.0132C182.476 42.1075 182.847 42.1547 183.247 42.1547C183.684 42.1547 184.051 42.0821 184.349 41.937C184.655 41.7845 184.807 41.5268 184.807 41.1638C184.807 40.5105 184.251 40.1838 183.138 40.1838H182.353V39.3998H182.985C183.487 39.3998 183.887 39.3345 184.185 39.2038C184.491 39.0659 184.644 38.8336 184.644 38.507C184.644 38.2311 184.527 38.0242 184.295 37.8863C184.069 37.7484 183.742 37.6794 183.313 37.6794C182.993 37.6794 182.709 37.7121 182.462 37.7774C182.222 37.8355 181.956 37.9262 181.665 38.0496L181.327 37.2874C181.938 37.0188 182.618 36.8845 183.367 36.8845ZM127.284 49.3341H128.309L129.575 52.6553C129.684 52.9456 129.782 53.2251 129.869 53.4937C129.956 53.755 130.022 54.0055 130.065 54.245H130.109C130.153 54.0635 130.222 53.8276 130.316 53.5372C130.411 53.2396 130.509 52.942 130.611 52.6444L131.8 49.3341H132.836L130.316 55.9764C130.113 56.5281 129.847 56.9673 129.52 57.2939C129.2 57.6206 128.756 57.7839 128.189 57.7839C128.015 57.7839 127.862 57.773 127.731 57.7512C127.6 57.7367 127.487 57.7186 127.393 57.6968V56.9346C127.473 56.9491 127.567 56.9636 127.676 56.9781C127.793 56.9927 127.913 56.9999 128.036 56.9999C128.371 56.9999 128.64 56.9055 128.844 56.7168C129.055 56.5281 129.218 56.2776 129.335 55.9655L129.64 55.1924L127.284 49.3341ZM138.703 49.3341V55.1706H137.743V50.1508H134.721V55.1706H133.761V49.3341H138.703ZM143.351 49.2252C144.071 49.2252 144.649 49.4757 145.085 49.9766C145.529 50.4775 145.751 51.2324 145.751 52.2415C145.751 53.236 145.529 53.991 145.085 54.5064C144.649 55.0218 144.067 55.2795 143.34 55.2795C142.889 55.2795 142.514 55.196 142.216 55.029C141.925 54.8548 141.696 54.6552 141.529 54.4301H141.463C141.478 54.5535 141.492 54.7096 141.507 54.8984C141.521 55.0871 141.529 55.2504 141.529 55.3884V57.7839H140.569V49.3341H141.354L141.485 50.129H141.529C141.703 49.875 141.932 49.6608 142.216 49.4866C142.5 49.3124 142.878 49.2252 143.351 49.2252ZM143.176 50.031C142.58 50.031 142.158 50.198 141.911 50.5319C141.671 50.8658 141.543 51.374 141.529 52.0564V52.2415C141.529 52.9601 141.645 53.5155 141.878 53.9075C142.118 54.2922 142.558 54.4846 143.198 54.4846C143.554 54.4846 143.845 54.3866 144.071 54.1906C144.303 53.9946 144.474 53.7296 144.583 53.3957C144.7 53.0545 144.758 52.6661 144.758 52.2306C144.758 51.5627 144.627 51.0292 144.365 50.6299C144.111 50.2307 143.714 50.031 143.176 50.031ZM149.495 49.2361C150.207 49.2361 150.735 49.3922 151.076 49.7044C151.418 50.0165 151.589 50.5138 151.589 51.1961V55.1706H150.891L150.705 54.343H150.662C150.407 54.6624 150.138 54.8984 149.855 55.0508C149.578 55.2032 149.193 55.2795 148.698 55.2795C148.167 55.2795 147.727 55.1415 147.378 54.8657C147.029 54.5826 146.855 54.1434 146.855 53.5481C146.855 52.9674 147.084 52.521 147.542 52.2088C148 51.8894 148.705 51.7152 149.658 51.6861L150.651 51.6535V51.305C150.651 50.8187 150.545 50.4811 150.335 50.2924C150.124 50.1036 149.825 50.0092 149.44 50.0092C149.135 50.0092 148.844 50.0564 148.567 50.1508C148.291 50.2379 148.033 50.3395 147.793 50.4557L147.498 49.737C147.753 49.5991 148.055 49.483 148.404 49.3886C148.753 49.287 149.116 49.2361 149.495 49.2361ZM149.778 52.3504C149.051 52.3794 148.545 52.4955 148.262 52.6988C147.985 52.9021 147.847 53.1888 147.847 53.559C147.847 53.8857 147.945 54.1252 148.142 54.2777C148.345 54.4301 148.604 54.5064 148.916 54.5064C149.411 54.5064 149.822 54.3721 150.149 54.1035C150.476 53.8276 150.64 53.4066 150.64 52.8404V52.3177L149.778 52.3504ZM158.097 50.8041C158.097 51.1671 157.988 51.4502 157.77 51.6535C157.552 51.8567 157.272 51.9947 156.93 52.0672V52.1108C157.294 52.1616 157.61 52.2923 157.879 52.5028C158.148 52.7061 158.283 53.0255 158.283 53.461C158.283 53.9547 158.097 54.3648 157.727 54.6915C157.363 55.0109 156.759 55.1706 155.916 55.1706H153.396V49.3341H155.905C156.319 49.3341 156.69 49.3813 157.017 49.4757C157.352 49.5628 157.614 49.7153 157.803 49.933C157.999 50.1435 158.097 50.4339 158.097 50.8041ZM157.127 50.9239C157.127 50.6481 157.025 50.4484 156.821 50.325C156.625 50.1944 156.301 50.129 155.85 50.129H154.356V51.7297H155.676C156.643 51.7297 157.127 51.4611 157.127 50.9239ZM157.29 53.461C157.29 53.1271 157.163 52.8875 156.908 52.7424C156.654 52.5972 156.279 52.5246 155.785 52.5246H154.356V54.3975H155.807C156.287 54.3975 156.654 54.3285 156.908 54.1906C157.163 54.0454 157.29 53.8022 157.29 53.461ZM164.132 55.1706H163.161V50.129H161.437C161.343 51.3558 161.212 52.3467 161.044 53.1017C160.877 53.8494 160.655 54.3938 160.379 54.735C160.103 55.0762 159.753 55.2468 159.332 55.2468C159.237 55.2468 159.143 55.2395 159.048 55.225C158.961 55.2178 158.888 55.1996 158.83 55.1706V54.4519C158.873 54.4664 158.921 54.4773 158.972 54.4846C159.023 54.4918 159.073 54.4955 159.124 54.4955C159.517 54.4955 159.83 54.0781 160.063 53.2432C160.303 52.4084 160.484 51.1054 160.608 49.3341H164.132V55.1706ZM166.948 55.1706H165.988V49.3341H166.948V55.1706ZM169.76 49.3341V51.7624H172.935V49.3341H173.895V55.1706H172.935V52.5681H169.76V55.1706H168.8V49.3341H169.76ZM176.706 49.3341V51.7624H179.881V49.3341H180.841V55.1706H179.881V52.5681H176.706V55.1706H175.746V49.3341H176.706ZM183.052 55.1706H181.94L183.609 52.7206C183.383 52.6625 183.165 52.5718 182.954 52.4484C182.743 52.3177 182.572 52.1398 182.441 51.9148C182.311 51.6825 182.245 51.3958 182.245 51.0546C182.245 50.4956 182.434 50.071 182.812 49.7806C183.191 49.483 183.692 49.3341 184.318 49.3341H186.936V55.1706H185.976V52.8512H184.558L183.052 55.1706ZM183.172 51.0655C183.172 51.3994 183.296 51.6498 183.543 51.8168C183.798 51.9765 184.151 52.0564 184.601 52.0564H185.976V50.129H184.416C183.972 50.129 183.652 50.2161 183.456 50.3904C183.267 50.5646 183.172 50.7896 183.172 51.0655ZM130.415 61.5769C131.127 61.5769 131.655 61.733 131.996 62.0451C132.338 62.3573 132.509 62.8545 132.509 63.5369V67.5113H131.811L131.625 66.6838H131.582C131.327 67.0032 131.058 67.2391 130.775 67.3915C130.498 67.544 130.113 67.6202 129.618 67.6202C129.087 67.6202 128.647 67.4823 128.298 67.2064C127.949 66.9233 127.775 66.4841 127.775 65.8889C127.775 65.3081 128.004 64.8617 128.462 64.5495C128.92 64.2301 129.625 64.0559 130.578 64.0269L131.571 63.9942V63.6458C131.571 63.1594 131.465 62.8218 131.255 62.6331C131.044 62.4444 130.745 62.35 130.36 62.35C130.055 62.35 129.764 62.3972 129.487 62.4915C129.211 62.5787 128.953 62.6803 128.713 62.7964L128.418 62.0778C128.673 61.9398 128.975 61.8237 129.324 61.7293C129.673 61.6277 130.036 61.5769 130.415 61.5769ZM130.698 64.6911C129.971 64.7201 129.465 64.8363 129.182 65.0395C128.905 65.2428 128.767 65.5295 128.767 65.8998C128.767 66.2264 128.865 66.466 129.062 66.6184C129.265 66.7709 129.524 66.8471 129.836 66.8471C130.331 66.8471 130.742 66.7128 131.069 66.4442C131.396 66.1684 131.56 65.7473 131.56 65.1811V64.6584L130.698 64.6911ZM137.773 61.6749H138.82L136.322 64.4842L139.028 67.5113H137.915L135.275 64.5495V67.5113H134.315V61.6749H135.275V64.506L137.773 61.6749ZM144.126 62.4807H142.217V67.5113H141.268V62.4807H139.38V61.6749H144.126V62.4807ZM146.183 65.2355C146.183 65.3227 146.179 65.4533 146.172 65.6275C146.164 65.8018 146.153 65.976 146.139 66.1502C146.132 66.3244 146.124 66.4624 146.117 66.564L149.248 61.6749H150.426V67.5113H149.532V64.0704C149.532 63.9543 149.532 63.8018 149.532 63.6131C149.539 63.4244 149.546 63.2392 149.553 63.0578C149.561 62.869 149.568 62.7275 149.575 62.6331L146.466 67.5113H145.277V61.6749H146.183V65.2355ZM156.989 63.1449C156.989 63.5078 156.88 63.791 156.662 63.9942C156.444 64.1975 156.164 64.3354 155.822 64.408V64.4515C156.185 64.5024 156.502 64.633 156.771 64.8435C157.04 65.0468 157.175 65.3662 157.175 65.8018C157.175 66.2954 156.989 66.7055 156.618 67.0322C156.255 67.3516 155.651 67.5113 154.807 67.5113H152.287V61.6749H154.796C155.211 61.6749 155.582 61.7221 155.909 61.8164C156.244 61.9035 156.505 62.056 156.695 62.2738C156.891 62.4843 156.989 62.7747 156.989 63.1449ZM156.018 63.2647C156.018 62.9888 155.916 62.7892 155.713 62.6658C155.516 62.5351 155.193 62.4698 154.742 62.4698H153.247V64.0704H154.567C155.535 64.0704 156.018 63.8018 156.018 63.2647ZM156.182 65.8018C156.182 65.4678 156.055 65.2283 155.8 65.0831C155.545 64.9379 155.171 64.8653 154.676 64.8653H153.247V66.7382H154.698C155.178 66.7382 155.545 66.6693 155.8 66.5313C156.055 66.3861 156.182 66.143 156.182 65.8018ZM160.788 61.5769C161.5 61.5769 162.028 61.733 162.369 62.0451C162.711 62.3573 162.882 62.8545 162.882 63.5369V67.5113H162.184L161.999 66.6838H161.955C161.7 67.0032 161.431 67.2391 161.148 67.3915C160.871 67.544 160.486 67.6202 159.991 67.6202C159.46 67.6202 159.02 67.4823 158.671 67.2064C158.322 66.9233 158.148 66.4841 158.148 65.8889C158.148 65.3081 158.377 64.8617 158.835 64.5495C159.293 64.2301 159.999 64.0559 160.951 64.0269L161.944 63.9942V63.6458C161.944 63.1594 161.839 62.8218 161.628 62.6331C161.417 62.4444 161.119 62.35 160.733 62.35C160.428 62.35 160.137 62.3972 159.86 62.4915C159.584 62.5787 159.326 62.6803 159.086 62.7964L158.791 62.0778C159.046 61.9398 159.348 61.8237 159.697 61.7293C160.046 61.6277 160.409 61.5769 160.788 61.5769ZM161.071 64.6911C160.344 64.7201 159.839 64.8363 159.555 65.0395C159.279 65.2428 159.14 65.5295 159.14 65.8998C159.14 66.2264 159.239 66.466 159.435 66.6184C159.639 66.7709 159.897 66.8471 160.209 66.8471C160.704 66.8471 161.115 66.7128 161.442 66.4442C161.769 66.1684 161.933 65.7473 161.933 65.1811V64.6584L161.071 64.6911ZM170.961 61.6749V67.5113H170.099V63.7873C170.099 63.6349 170.103 63.4752 170.11 63.3082C170.124 63.1412 170.139 62.9779 170.153 62.8182H170.121L168.212 67.5113H167.404L165.55 62.8182H165.517C165.539 63.1449 165.55 63.4788 165.55 63.82V67.5113H164.688V61.6749H165.964L167.808 66.368L169.684 61.6749H170.961ZM173.732 65.2355C173.732 65.3227 173.729 65.4533 173.721 65.6275C173.714 65.8018 173.703 65.976 173.689 66.1502C173.681 66.3244 173.674 66.4624 173.667 66.564L176.798 61.6749H177.976V67.5113H177.081V64.0704C177.081 63.9543 177.081 63.8018 177.081 63.6131C177.089 63.4244 177.096 63.2392 177.103 63.0578C177.111 62.869 177.118 62.7275 177.125 62.6331L174.016 67.5113H172.827V61.6749H173.732V65.2355Z" fill="white"/>
<path d="M8.01673 92.1928H5.48364V91.6832L6.30837 91.4967V85.9012L5.48364 85.7052V85.1956H8.01673V85.7052L7.19201 85.9012V91.4967L8.01673 91.6832V92.1928ZM14.7311 92.1928H13.8474V88.9291H10.254V92.1928H9.37033V85.1956H10.254V88.1552H13.8474V85.1956H14.7311V92.1928ZM18.6506 85.1956C19.5277 85.1956 20.1888 85.3263 20.6339 85.5876C21.0855 85.8424 21.3114 86.2896 21.3114 86.9299C21.3114 87.3415 21.1968 87.6848 20.9677 87.9592C20.7386 88.2271 20.4081 88.3999 19.9761 88.4783V88.5276C20.2706 88.5734 20.5357 88.6583 20.7714 88.7824C21.0135 88.9066 21.2034 89.083 21.3408 89.3116C21.4783 89.5403 21.547 89.8372 21.547 90.2031C21.547 90.8368 21.3277 91.3268 20.8892 91.6731C20.4572 92.0193 19.8648 92.1928 19.1121 92.1928H16.6477V85.1956H18.6506ZM18.8274 88.1748C19.4295 88.1748 19.8419 88.0797 20.0644 87.8903C20.287 87.6943 20.3983 87.4068 20.3983 87.0279C20.3983 86.6424 20.2608 86.368 19.9859 86.2047C19.7175 86.0348 19.2855 85.9499 18.6899 85.9499H17.5314V88.1748H18.8274ZM17.5314 88.9095V91.448H18.9452C19.567 91.448 19.999 91.3268 20.2412 91.0851C20.4834 90.8433 20.6044 90.5268 20.6044 90.1348C20.6044 89.769 20.4768 89.475 20.2215 89.2528C19.9728 89.0242 19.5244 88.9095 18.8764 88.9095H17.5314ZM26.9508 92.1928H23.0333V85.1956H26.9508V85.9695H23.917V88.1552H26.774V88.9196H23.917V91.4183H26.9508V92.1928ZM31.4933 85.8715C30.7406 85.8715 30.1482 86.1234 29.7162 86.6264C29.2842 87.1295 29.0682 87.8184 29.0682 88.6939C29.0682 89.5628 29.2679 90.2524 29.6671 90.762C30.073 91.2651 30.6784 91.5163 31.4835 91.5163C31.7911 91.5163 32.0824 91.4901 32.3573 91.4379C32.6322 91.3856 32.9006 91.3203 33.1624 91.2419V92.0063C32.9006 92.1043 32.6289 92.1761 32.3475 92.2226C32.0726 92.2683 31.742 92.2908 31.3559 92.2908C30.6424 92.2908 30.0468 92.1442 29.5689 91.8495C29.0911 91.5555 28.7311 91.1373 28.4889 90.5951C28.2533 90.0528 28.1355 89.4162 28.1355 88.6844C28.1355 87.9788 28.2631 87.3582 28.5184 86.8224C28.7802 86.2802 29.1631 85.8584 29.6671 85.5579C30.1711 85.2508 30.7831 85.0976 31.5031 85.0976C32.2428 85.0976 32.8875 85.2348 33.4373 85.5092L33.0839 86.254C32.8679 86.156 32.6257 86.0675 32.3573 85.9891C32.0955 85.9107 31.8075 85.8715 31.4933 85.8715ZM36.9114 92.1928H36.0277V85.9695H33.8383V85.1956H39.091V85.9695H36.9114V92.1928ZM40.1578 85.1956H40.9826V89.0372C40.9826 89.2528 40.9793 89.4946 40.9727 89.7624C40.9662 90.0303 40.9564 90.2749 40.9433 90.4971C40.9367 90.7192 40.9269 90.8825 40.9138 90.9871H40.9531L44.8116 85.1956H45.7935V92.1928H44.9687V88.3904C44.9687 88.1487 44.972 87.8903 44.9785 87.6159C44.9916 87.3415 45.0047 87.0903 45.0178 86.8616C45.0309 86.633 45.0407 86.4696 45.0473 86.3716H45.008L41.1396 92.1928H40.1578V85.1956ZM53.8009 91.4183V94.0352H52.9566V92.1928H47.6842V85.1956H48.5679V91.4088H52.073V85.1956H52.9468V91.4183H53.8009ZM56.9351 92.1928H54.402V91.6832L55.2267 91.4967V85.9012L54.402 85.7052V85.1956H56.9351V85.7052L56.1103 85.9012V91.4967L56.9351 91.6832V92.1928ZM63.0701 83.02C63.0243 83.51 62.8574 83.8824 62.5694 84.1372C62.2879 84.3855 61.8363 84.5096 61.2145 84.5096C60.573 84.5096 60.1181 84.3855 59.8498 84.1372C59.5879 83.889 59.4407 83.5166 59.4079 83.02H60.213C60.2457 83.3728 60.3374 83.6109 60.4879 83.7351C60.645 83.8527 60.8937 83.9115 61.2341 83.9115C61.5352 83.9115 61.7708 83.8498 61.941 83.7256C62.1177 83.595 62.2225 83.3598 62.2552 83.02H63.0701ZM58.2985 85.1956H59.1232V89.0372C59.1232 89.2528 59.1199 89.4946 59.1134 89.7624C59.1068 90.0303 59.097 90.2749 59.0839 90.4971C59.0774 90.7192 59.0676 90.8825 59.0545 90.9871H59.0937L62.9523 85.1956H63.9341V92.1928H63.1094V88.3904C63.1094 88.1487 63.1127 87.8903 63.1192 87.6159C63.1323 87.3415 63.1454 87.0903 63.1585 86.8616C63.1716 86.633 63.1814 86.4696 63.1879 86.3716H63.1487L59.2803 92.1928H58.2985V85.1956ZM71.1856 92.1928H70.302V88.9291H66.7085V92.1928H65.8249V85.1956H66.7085V88.1552H70.302V85.1956H71.1856V92.1928ZM75.0756 92.1928H72.5426V91.6832L73.3673 91.4967V85.9012L72.5426 85.7052V85.1956H75.0756V85.7052L74.2509 85.9012V91.4967L75.0756 91.6832V92.1928ZM82.3949 90.2031C82.1855 90.6669 81.9724 91.056 81.7564 91.3696C81.5469 91.6767 81.2982 91.9083 81.0102 92.0651C80.7222 92.216 80.3556 92.2908 79.9105 92.2908C79.7273 92.2908 79.5542 92.2778 79.3905 92.2516C79.2335 92.2255 79.0895 92.1892 78.9585 92.1435V91.2716C79.0895 91.3304 79.2298 91.3791 79.3804 91.4183C79.5309 91.4509 79.688 91.4676 79.8516 91.4676C80.2182 91.4676 80.5062 91.3892 80.7156 91.2324C80.9316 91.0756 81.1316 90.7976 81.3149 90.3991L78.6145 85.1956H79.5869L81.5404 89.0467C81.5731 89.112 81.6124 89.1969 81.6582 89.3015C81.704 89.3995 81.7433 89.4946 81.776 89.586H81.8153C81.8415 89.5142 81.8742 89.4292 81.9135 89.3312C81.9527 89.2267 81.9855 89.1418 82.0116 89.0764L83.7004 85.1956H84.6335L82.3949 90.2031ZM90.7011 92.1928H89.6407L86.4698 88.6452V92.1928H85.5862V85.1956H86.4698V88.5864L89.5622 85.1956H90.5636L87.52 88.5959L90.7011 92.1928ZM93.5105 85.1956C94.4269 85.1956 95.0945 85.3749 95.5135 85.7343C95.9324 86.0936 96.1418 86.6003 96.1418 87.2536C96.1418 87.6391 96.0538 88.0013 95.8771 88.3411C95.7069 88.6743 95.4153 88.9458 95.0029 89.1548C94.5971 89.3639 94.0444 89.4684 93.344 89.4684H92.5389V92.1928H91.6553V85.1956H93.5105ZM93.432 85.9499H92.5389V88.7135H93.2458C93.9135 88.7135 94.4109 88.606 94.7382 88.3904C95.0655 88.1748 95.2291 87.809 95.2291 87.2928C95.2291 86.842 95.0851 86.5052 94.7971 86.2831C94.5091 86.0609 94.0538 85.9499 93.432 85.9499ZM101.509 92.1928L100.665 90.0267H97.8865L97.0516 92.1928H96.1585L98.8975 85.1659H99.6931L102.423 92.1928H101.509ZM99.6146 87.1259C99.5949 87.0736 99.5622 86.9792 99.5164 86.842C99.4706 86.7048 99.4247 86.564 99.3789 86.4203C99.3396 86.27 99.3069 86.156 99.2807 86.0776C99.2349 86.2802 99.1825 86.4791 99.1236 86.6751C99.0647 86.8645 99.0153 87.0148 98.976 87.1259L98.1811 89.2427H100.4L99.6146 87.1259ZM105.355 92.1928H102.822V91.6832L103.647 91.4967V85.9012L102.822 85.7052V85.1956H105.355V85.7052L104.53 85.9012V91.4967L105.355 91.6832V92.1928ZM102.713 83.7743C102.713 83.6044 102.759 83.4839 102.851 83.412C102.943 83.3336 103.051 83.2944 103.175 83.2944C103.3 83.2944 103.407 83.3336 103.499 83.412C103.591 83.4839 103.636 83.6044 103.636 83.7743C103.636 83.9376 103.591 84.0617 103.499 84.1467C103.407 84.2251 103.3 84.2643 103.175 84.2643C103.051 84.2643 102.943 84.2251 102.851 84.1467C102.759 84.0617 102.713 83.9376 102.713 83.7743ZM104.559 83.7743C104.559 83.6044 104.602 83.4839 104.687 83.412C104.779 83.3336 104.887 83.2944 105.011 83.2944C105.135 83.2944 105.244 83.3336 105.335 83.412C105.427 83.4839 105.473 83.6044 105.473 83.7743C105.473 83.9376 105.427 84.0617 105.335 84.1467C105.244 84.2251 105.135 84.2643 105.011 84.2643C104.887 84.2643 104.779 84.2251 104.687 84.1467C104.602 84.0617 104.559 83.9376 104.559 83.7743ZM112.069 92.1928H111.185V88.9291H107.592V92.1928H106.708V85.1956H107.592V88.1552H111.185V85.1956H112.069V92.1928ZM116.99 85.8715C116.237 85.8715 115.645 86.1234 115.213 86.6264C114.781 87.1295 114.565 87.8184 114.565 88.6939C114.565 89.5628 114.764 90.2524 115.164 90.762C115.569 91.2651 116.175 91.5163 116.98 91.5163C117.288 91.5163 117.579 91.4901 117.854 91.4379C118.129 91.3856 118.397 91.3203 118.659 91.2419V92.0063C118.397 92.1043 118.126 92.1761 117.844 92.2226C117.569 92.2683 117.239 92.2908 116.852 92.2908C116.139 92.2908 115.543 92.1442 115.065 91.8495C114.588 91.5555 114.228 91.1373 113.985 90.5951C113.75 90.0528 113.632 89.4162 113.632 88.6844C113.632 87.9788 113.76 87.3582 114.015 86.8224C114.277 86.2802 114.66 85.8584 115.164 85.5579C115.668 85.2508 116.28 85.0976 117 85.0976C117.74 85.0976 118.384 85.2348 118.934 85.5092L118.58 86.254C118.364 86.156 118.122 86.0675 117.854 85.9891C117.592 85.9107 117.304 85.8715 116.99 85.8715ZM120.189 92.1928V85.1956H121.073V88.1552H122.388C123.043 88.1552 123.564 88.2431 123.95 88.4195C124.336 88.5959 124.614 88.8347 124.784 89.1352C124.954 89.4358 125.039 89.7719 125.039 90.1443C125.039 90.7584 124.83 91.2549 124.411 91.6339C123.992 92.0063 123.354 92.1928 122.497 92.1928H120.189ZM122.408 91.4379C123.553 91.4379 124.127 91.0067 124.127 90.1443C124.127 89.6935 123.969 89.377 123.655 89.194C123.341 89.0111 122.883 88.9196 122.281 88.9196H121.073V91.4379H122.408ZM131.604 92.1928H130.543L127.372 88.6452V92.1928H126.489V85.1956H127.372V88.5864L130.465 85.1956H131.466L128.423 88.5959L131.604 92.1928ZM134.532 92.1928H131.999V91.6832L132.823 91.4967V85.9012L131.999 85.7052V85.1956H134.532V85.7052L133.707 85.9012V91.4967L134.532 91.6832V92.1928ZM138.915 92.1928V85.1956H144.177V92.1928H143.303V85.9695H139.799V92.1928H138.915ZM147.952 85.1956C148.868 85.1956 149.536 85.3749 149.955 85.7343C150.374 86.0936 150.583 86.6003 150.583 87.2536C150.583 87.6391 150.495 88.0013 150.318 88.3411C150.148 88.6743 149.857 88.9458 149.444 89.1548C149.039 89.3639 148.485 89.4684 147.785 89.4684H146.98V92.1928H146.096V85.1956H147.952ZM147.873 85.9499H146.98V88.7135H147.687C148.354 88.7135 148.852 88.606 149.179 88.3904C149.506 88.1748 149.67 87.809 149.67 87.2928C149.67 86.842 149.526 86.5052 149.238 86.2831C148.95 86.0609 148.495 85.9499 147.873 85.9499ZM158.158 88.6844C158.158 89.4096 158.033 90.0434 157.785 90.5856C157.543 91.1214 157.183 91.5395 156.705 91.84C156.227 92.1406 155.634 92.2908 154.927 92.2908C154.201 92.2908 153.596 92.1406 153.111 91.84C152.633 91.5395 152.276 91.1177 152.041 90.5755C151.805 90.0332 151.687 89.3995 151.687 88.6743C151.687 87.9556 151.805 87.3284 152.041 86.7934C152.276 86.2569 152.633 85.8388 153.111 85.5383C153.596 85.2377 154.204 85.0875 154.937 85.0875C155.638 85.0875 156.227 85.2377 156.705 85.5383C157.183 85.8323 157.543 86.2504 157.785 86.7934C158.033 87.3284 158.158 87.9592 158.158 88.6844ZM152.62 88.6844C152.62 89.5664 152.807 90.2619 153.18 90.7715C153.553 91.2745 154.135 91.5264 154.927 91.5264C155.726 91.5264 156.308 91.2745 156.675 90.7715C157.041 90.2619 157.225 89.5664 157.225 88.6844C157.225 87.8024 157.041 87.1128 156.675 86.6163C156.308 86.1132 155.729 85.862 154.937 85.862C154.145 85.862 153.559 86.1132 153.18 86.6163C152.807 87.1128 152.62 87.8024 152.62 88.6844ZM163.628 92.1928H159.711V85.1956H163.628V85.9695H160.595V88.1552H163.452V88.9196H160.595V91.4183H163.628V92.1928ZM170.282 92.1928H169.222L166.05 88.6452V92.1928H165.167V85.1956H166.05V88.5864L169.143 85.1956H170.145L167.101 88.5959L170.282 92.1928ZM173.455 92.1928H172.572V85.9695H170.382V85.1956H175.635V85.9695H173.455V92.1928ZM176.702 85.1956H177.527V89.0372C177.527 89.2528 177.523 89.4946 177.516 89.7624C177.51 90.0303 177.5 90.2749 177.487 90.4971C177.481 90.7192 177.471 90.8825 177.457 90.9871H177.497L181.356 85.1956H182.337V92.1928H181.513V88.3904C181.513 88.1487 181.516 87.8903 181.522 87.6159C181.535 87.3415 181.548 87.0903 181.561 86.8616C181.575 86.633 181.585 86.4696 181.591 86.3716H181.552L177.684 92.1928H176.702V85.1956Z" fill="white"/>
<path d="M14.0966 72.08H5.11145V34.7021H14.0966V72.08Z" fill="white"/>
<path d="M117.091 31.9408V71.1408C117.091 71.5417 117.417 71.8667 117.818 71.8667C118.22 71.8667 118.545 71.5417 118.545 71.1408V31.9408C118.545 31.5399 118.22 31.2148 117.818 31.2148C117.417 31.2148 117.091 31.5399 117.091 31.9408Z" fill="white"/>
<path d="M36.8681 59.2943H21.4347V52.6206H36.8681V59.2943Z" fill="white"/>
<path d="M73.3214 34.7012V59.1668C73.3214 61.9391 72.7309 64.3393 71.5499 66.3674C70.3691 68.3955 68.6746 69.94 66.4665 71.001C64.2592 72.0637 61.6496 72.5948 58.6376 72.5948C54.0848 72.5948 50.4993 71.4142 47.8812 69.0526C45.2632 66.6909 43.9268 63.4555 43.8721 59.3464V34.7012H52.9345V59.526C53.0366 63.6167 54.9364 65.6621 58.634 65.6621C60.4989 65.6621 61.9108 65.1484 62.8697 64.1211C63.8287 63.0938 64.3078 61.425 64.307 59.1149V34.7012H73.3214Z" fill="white"/>
<path d="M87.9541 59.3981V72.08H78.9432V34.7021H93.8596C96.7171 34.7021 99.2458 35.2287 101.445 36.2817C103.644 37.3346 105.347 38.8322 106.553 40.7742C107.759 42.7171 108.362 44.9204 108.362 47.3841C108.362 51.0303 107.057 53.9441 104.447 56.1257C101.837 58.3073 98.256 59.3984 93.704 59.3992L87.9541 59.3981ZM87.9541 52.441H93.8618C95.6065 52.441 96.9367 52.0044 97.8531 51.1315C98.7694 50.2586 99.2276 49.0263 99.2262 47.4347C99.2262 45.6888 98.7556 44.2938 97.8145 43.2496C96.8734 42.2055 95.5898 41.675 93.9643 41.658H87.9541V52.441Z" fill="white"/>
<path d="M14.1003 22.2397H5.09094V31.7084H14.1003V22.2397Z" fill="white"/>
<path d="M73.9033 9.96436H64.8942V31.6423H73.9033V9.96436Z" fill="white"/>
<path d="M94.4545 0H85.4451V31.5964H94.4545V0Z" fill="white"/>
<path d="M52.885 22.5303H43.8757V31.5829H52.885V22.5303Z" fill="white"/>
</svg>
