<svg width="16" height="16" viewBox="0 0 16 16" fill="none" xmlns="http://www.w3.org/2000/svg">
<path fill-rule="evenodd" clip-rule="evenodd" d="M2.11438 3.44755C1.33333 4.2286 1.33333 5.48568 1.33333 7.99984C1.33333 10.514 1.33333 11.7711 2.11438 12.5521C2.89543 13.3332 4.1525 13.3332 6.66666 13.3332L9.33333 13.3332C11.8475 13.3332 13.1046 13.3332 13.8856 12.5521C14.6667 11.7711 14.6667 10.514 14.6667 7.99984C14.6667 5.48568 14.6667 4.2286 13.8856 3.44755C13.1046 2.6665 11.8475 2.6665 9.33333 2.6665L6.66666 2.6665C4.1525 2.6665 2.89543 2.6665 2.11438 3.44755ZM12.4801 5.90934C12.7983 5.64416 12.8413 5.17124 12.5762 4.85303C12.311 4.53482 11.8381 4.49183 11.5199 4.757L10.0806 5.95639C9.45374 6.47877 9.03558 6.82549 8.68704 7.04966C8.35599 7.26257 8.16404 7.31309 7.99999 7.31309C7.83595 7.31309 7.644 7.26257 7.31295 7.04966C6.96441 6.82549 6.54625 6.47877 5.9194 5.95639L4.48013 4.757C4.16193 4.49183 3.689 4.53482 3.42383 4.85303C3.15866 5.17124 3.20165 5.64416 3.51986 5.90934L4.95912 7.10872L4.99463 7.13832C5.57655 7.62328 6.06569 8.03093 6.50155 8.31125C6.96373 8.60851 7.43994 8.81309 7.99999 8.81309C8.56005 8.81309 9.03626 8.60851 9.49844 8.31125C9.9343 8.03093 10.4234 7.62328 11.0054 7.13832L11.0409 7.10872L12.4801 5.90934Z" fill="#6BAF8D"/>
</svg>
