<svg width="16" height="16" viewBox="0 0 16 16" fill="none" xmlns="http://www.w3.org/2000/svg">
<path fill-rule="evenodd" clip-rule="evenodd" d="M8 1.3335C5.05449 1.3335 2.66667 3.76408 2.66667 6.76236C2.66667 9.73714 4.36889 13.2084 7.02472 14.4498C7.64383 14.7392 8.35618 14.7392 8.97529 14.4498C11.6311 13.2084 13.3333 9.73714 13.3333 6.76236C13.3333 3.76408 10.9455 1.3335 8 1.3335ZM8.00001 8.66683C9.10457 8.66683 10 7.7714 10 6.66683C10 5.56226 9.10457 4.66683 8.00001 4.66683C6.89544 4.66683 6.00001 5.56226 6.00001 6.66683C6.00001 7.7714 6.89544 8.66683 8.00001 8.66683Z" fill="#6BAF8D"/>
</svg>
