<svg width="16" height="16" viewBox="0 0 16 16" fill="none" xmlns="http://www.w3.org/2000/svg">
<g clip-path="url(#clip0_2002_2009)">
<path d="M9.00005 1.33337C9.00005 1.33337 10.5557 1.4748 12.5356 3.45469C14.5155 5.43459 14.6569 6.99023 14.6569 6.99023" stroke="#6BAF8D" stroke-width="1.5" stroke-linecap="round"/>
<path d="M9.47136 3.69043C9.47136 3.69043 10.1313 3.87899 11.1213 4.86894C12.1112 5.85889 12.2998 6.51886 12.2998 6.51886" stroke="#6BAF8D" stroke-width="1.5" stroke-linecap="round"/>
<path d="M10.3708 9.69847L10.0671 10.0181C10.0671 10.0181 9.34542 10.778 7.37541 8.70393C5.40541 6.62989 6.12714 5.87005 6.12714 5.87005L6.31835 5.66874C6.78938 5.17283 6.83379 4.37664 6.42283 3.7954L5.58217 2.60641C5.07352 1.887 4.09064 1.79197 3.50763 2.40576L2.46123 3.50742C2.17215 3.81177 1.97843 4.2063 2.00193 4.64396C2.06202 5.76364 2.54048 8.1727 5.21024 10.9835C8.04143 13.9642 10.6979 14.0826 11.7842 13.9754C12.1278 13.9415 12.4266 13.7562 12.6674 13.5027L13.6144 12.5056C14.2537 11.8326 14.0735 10.6788 13.2556 10.208L11.9819 9.47488C11.4448 9.16576 10.7905 9.25656 10.3708 9.69847Z" fill="#6BAF8D"/>
</g>
<defs>
<clipPath id="clip0_2002_2009">
<rect width="16" height="16" fill="white"/>
</clipPath>
</defs>
</svg>
